<?xml version="1.0" encoding="UTF-8" standalone="no"?>
<!DOCTYPE svg PUBLIC "-//W3C//DTD SVG 1.1//EN"
 "http://www.w3.org/Graphics/SVG/1.1/DTD/svg11.dtd">
<!-- Generated by graphviz version 9.0.0 (20230911.1827)
 -->
<!-- Title: grafica Pages: 1 -->
<svg width="259pt" height="638pt"
 viewBox="0.00 0.00 258.50 638.00" xmlns="http://www.w3.org/2000/svg" xmlns:xlink="http://www.w3.org/1999/xlink">
<g id="graph0" class="graph" transform="scale(1 1) rotate(0) translate(4 634)">
<title>grafica</title>
<polygon fill="white" stroke="none" points="-4,4 -4,-634 254.5,-634 254.5,4 -4,4"/>
<!-- nodo1 -->
<g id="node1" class="node">
<title>nodo1</title>
<text text-anchor="start" x="179.12" y="-608.7" font-family="Times New Roman,serif" font-size="14.00">N</text>
<text text-anchor="start" x="167.12" y="-587.08" font-family="Times New Roman,serif" font-size="14.00">1</text>
<polygon fill="none" stroke="black" points="177.5,-582 177.5,-603 190.5,-603 190.5,-582 177.5,-582"/>
<text text-anchor="start" x="182.12" y="-586.7" font-family="Times New Roman,serif" font-size="14.00">.</text>
<text text-anchor="start" x="194.12" y="-587.08" font-family="Times New Roman,serif" font-size="14.00">4</text>
<text text-anchor="start" x="180.62" y="-564.7" font-family="Times New Roman,serif" font-size="14.00">0</text>
</g>
<!-- nodo2 -->
<g id="node2" class="node">
<title>nodo2</title>
<text text-anchor="start" x="141.12" y="-497.7" font-family="Times New Roman,serif" font-size="14.00">N</text>
<text text-anchor="start" x="128.62" y="-476.07" font-family="Times New Roman,serif" font-size="14.00">1</text>
<polygon fill="none" stroke="black" points="139,-471 139,-492 153,-492 153,-471 139,-471"/>
<text text-anchor="start" x="141.88" y="-475.7" font-family="Times New Roman,serif" font-size="14.00">+</text>
<text text-anchor="start" x="156.62" y="-476.07" font-family="Times New Roman,serif" font-size="14.00">3</text>
<text text-anchor="start" x="142.62" y="-453.7" font-family="Times New Roman,serif" font-size="14.00">0</text>
</g>
<!-- nodo1&#45;&gt;nodo2 -->
<g id="edge7" class="edge">
<title>nodo1&#45;&gt;nodo2</title>
<path fill="none" stroke="black" d="M171.35,-555.2C168.46,-546.93 165.36,-538.03 162.34,-529.38"/>
<polygon fill="black" stroke="black" points="165.69,-528.36 159.1,-520.07 159.08,-530.66 165.69,-528.36"/>
</g>
<!-- nodo16 -->
<g id="node9" class="node">
<title>nodo16</title>
<text text-anchor="start" x="217.12" y="-497.7" font-family="Times New Roman,serif" font-size="14.00">N</text>
<text text-anchor="start" x="205.12" y="-476.07" font-family="Times New Roman,serif" font-size="14.00">4</text>
<polygon fill="none" stroke="black" points="215.5,-471 215.5,-492 228.5,-492 228.5,-471 215.5,-471"/>
<text text-anchor="start" x="218.25" y="-475.7" font-family="Times New Roman,serif" font-size="14.00">#</text>
<text text-anchor="start" x="232.12" y="-476.07" font-family="Times New Roman,serif" font-size="14.00">4</text>
<text text-anchor="start" x="218.62" y="-453.7" font-family="Times New Roman,serif" font-size="14.00">4</text>
</g>
<!-- nodo1&#45;&gt;nodo16 -->
<g id="edge8" class="edge">
<title>nodo1&#45;&gt;nodo16</title>
<path fill="none" stroke="black" d="M196.65,-555.2C199.54,-546.93 202.64,-538.03 205.66,-529.38"/>
<polygon fill="black" stroke="black" points="208.92,-530.66 208.9,-520.07 202.31,-528.36 208.92,-530.66"/>
</g>
<!-- nodo3 -->
<g id="node3" class="node">
<title>nodo3</title>
<text text-anchor="start" x="141.12" y="-386.7" font-family="Times New Roman,serif" font-size="14.00">N</text>
<text text-anchor="start" x="129.12" y="-365.07" font-family="Times New Roman,serif" font-size="14.00">1</text>
<polygon fill="none" stroke="black" points="139.5,-360 139.5,-381 152.5,-381 152.5,-360 139.5,-360"/>
<text text-anchor="start" x="144.12" y="-364.7" font-family="Times New Roman,serif" font-size="14.00">.</text>
<text text-anchor="start" x="156.12" y="-365.07" font-family="Times New Roman,serif" font-size="14.00">3</text>
<text text-anchor="start" x="142.62" y="-342.7" font-family="Times New Roman,serif" font-size="14.00">0</text>
</g>
<!-- nodo2&#45;&gt;nodo3 -->
<g id="edge6" class="edge">
<title>nodo2&#45;&gt;nodo3</title>
<path fill="none" stroke="black" d="M146,-444.2C146,-436.11 146,-427.42 146,-418.96"/>
<polygon fill="black" stroke="black" points="149.5,-419.15 146,-409.15 142.5,-419.15 149.5,-419.15"/>
</g>
<!-- nodo4 -->
<g id="node4" class="node">
<title>nodo4</title>
<text text-anchor="start" x="95.62" y="-275.7" font-family="Times New Roman,serif" font-size="14.00">N</text>
<text text-anchor="start" x="83.62" y="-254.07" font-family="Times New Roman,serif" font-size="14.00">1</text>
<polygon fill="none" stroke="black" points="94,-249 94,-270 107,-270 107,-249 94,-249"/>
<text text-anchor="start" x="98.62" y="-253.7" font-family="Times New Roman,serif" font-size="14.00">.</text>
<text text-anchor="start" x="110.88" y="-254.07" font-family="Times New Roman,serif" font-size="14.00">1,2</text>
<text text-anchor="start" x="97.12" y="-231.7" font-family="Times New Roman,serif" font-size="14.00">0</text>
</g>
<!-- nodo3&#45;&gt;nodo4 -->
<g id="edge4" class="edge">
<title>nodo3&#45;&gt;nodo4</title>
<path fill="none" stroke="black" d="M132.68,-333.2C129.64,-324.93 126.38,-316.03 123.2,-307.38"/>
<polygon fill="black" stroke="black" points="126.51,-306.24 119.78,-298.06 119.94,-308.65 126.51,-306.24"/>
</g>
<!-- nodo12 -->
<g id="node8" class="node">
<title>nodo12</title>
<text text-anchor="start" x="182.12" y="-275.7" font-family="Times New Roman,serif" font-size="14.00">N</text>
<text text-anchor="start" x="170.12" y="-254.07" font-family="Times New Roman,serif" font-size="14.00">3</text>
<polygon fill="none" stroke="black" points="180.5,-249 180.5,-270 193.5,-270 193.5,-249 180.5,-249"/>
<text text-anchor="start" x="183.25" y="-253.7" font-family="Times New Roman,serif" font-size="14.00">_</text>
<text text-anchor="start" x="197.12" y="-254.07" font-family="Times New Roman,serif" font-size="14.00">3</text>
<text text-anchor="start" x="183.62" y="-231.7" font-family="Times New Roman,serif" font-size="14.00">3</text>
</g>
<!-- nodo3&#45;&gt;nodo12 -->
<g id="edge5" class="edge">
<title>nodo3&#45;&gt;nodo12</title>
<path fill="none" stroke="black" d="M159.65,-333.2C162.76,-324.93 166.11,-316.03 169.37,-307.38"/>
<polygon fill="black" stroke="black" points="172.63,-308.65 172.87,-298.05 166.08,-306.18 172.63,-308.65"/>
</g>
<!-- nodo5 -->
<g id="node5" class="node">
<title>nodo5</title>
<text text-anchor="start" x="50.12" y="-164.7" font-family="Times New Roman,serif" font-size="14.00">N</text>
<text text-anchor="start" x="11.62" y="-143.07" font-family="Times New Roman,serif" font-size="14.00">1</text>
<polygon fill="none" stroke="black" points="22,-138 22,-159 88,-159 88,-138 22,-138"/>
<text text-anchor="start" x="24.62" y="-142.7" font-family="Times New Roman,serif" font-size="14.00">letraMayus</text>
<text text-anchor="start" x="91.62" y="-143.07" font-family="Times New Roman,serif" font-size="14.00">1</text>
<text text-anchor="start" x="51.62" y="-120.7" font-family="Times New Roman,serif" font-size="14.00">1</text>
</g>
<!-- nodo4&#45;&gt;nodo5 -->
<g id="edge2" class="edge">
<title>nodo4&#45;&gt;nodo5</title>
<path fill="none" stroke="black" d="M89.02,-222.2C85.06,-213.75 80.79,-204.63 76.67,-195.8"/>
<polygon fill="black" stroke="black" points="79.96,-194.58 72.55,-187.01 73.62,-197.55 79.96,-194.58"/>
</g>
<!-- nodo7 -->
<g id="node6" class="node">
<title>nodo7</title>
<text text-anchor="start" x="152.12" y="-164.7" font-family="Times New Roman,serif" font-size="14.00">A</text>
<text text-anchor="start" x="140.12" y="-143.07" font-family="Times New Roman,serif" font-size="14.00">2</text>
<polygon fill="none" stroke="black" points="150.5,-138 150.5,-159 163.5,-159 163.5,-138 150.5,-138"/>
<text text-anchor="start" x="153.62" y="-142.7" font-family="Times New Roman,serif" font-size="14.00">*</text>
<text text-anchor="start" x="167.12" y="-143.07" font-family="Times New Roman,serif" font-size="14.00">2</text>
<text text-anchor="start" x="153.62" y="-120.7" font-family="Times New Roman,serif" font-size="14.00">0</text>
</g>
<!-- nodo4&#45;&gt;nodo7 -->
<g id="edge3" class="edge">
<title>nodo4&#45;&gt;nodo7</title>
<path fill="none" stroke="black" d="M122.98,-222.2C126.94,-213.75 131.21,-204.63 135.33,-195.8"/>
<polygon fill="black" stroke="black" points="138.38,-197.55 139.45,-187.01 132.04,-194.58 138.38,-197.55"/>
</g>
<!-- nodo8 -->
<g id="node7" class="node">
<title>nodo8</title>
<text text-anchor="start" x="152.12" y="-53.7" font-family="Times New Roman,serif" font-size="14.00">N</text>
<text text-anchor="start" x="132.12" y="-32.08" font-family="Times New Roman,serif" font-size="14.00">2</text>
<polygon fill="none" stroke="black" points="142.5,-27 142.5,-48 171.5,-48 171.5,-27 142.5,-27"/>
<text text-anchor="start" x="145.38" y="-31.7" font-family="Times New Roman,serif" font-size="14.00">letra</text>
<text text-anchor="start" x="175.12" y="-32.08" font-family="Times New Roman,serif" font-size="14.00">2</text>
<text text-anchor="start" x="153.62" y="-9.7" font-family="Times New Roman,serif" font-size="14.00">2</text>
</g>
<!-- nodo7&#45;&gt;nodo8 -->
<g id="edge1" class="edge">
<title>nodo7&#45;&gt;nodo8</title>
<path fill="none" stroke="black" d="M157,-111.2C157,-103.11 157,-94.42 157,-85.96"/>
<polygon fill="black" stroke="black" points="160.5,-86.15 157,-76.15 153.5,-86.15 160.5,-86.15"/>
</g>
</g>
</svg>
