<?xml version="1.0" encoding="UTF-8" standalone="no"?>
<!DOCTYPE svg PUBLIC "-//W3C//DTD SVG 1.1//EN"
 "http://www.w3.org/Graphics/SVG/1.1/DTD/svg11.dtd">
<!-- Generated by graphviz version 9.0.0 (20230911.1827)
 -->
<!-- Title: grafica Pages: 1 -->
<svg width="550pt" height="232pt"
 viewBox="0.00 0.00 550.00 232.00" xmlns="http://www.w3.org/2000/svg" xmlns:xlink="http://www.w3.org/1999/xlink">
<g id="graph0" class="graph" transform="scale(1 1) rotate(0) translate(4 228)">
<title>grafica</title>
<polygon fill="white" stroke="none" points="-4,4 -4,-228 546,-228 546,4 -4,4"/>
<!-- TABLA -->
<g id="node1" class="node">
<title>TABLA</title>
<polygon fill="none" stroke="black" points="1,-186 1,-223 541,-223 541,-186 1,-186"/>
<text text-anchor="start" x="203.12" y="-198.7" font-family="Times New Roman,serif" font-size="14.00">TABLA DE ERRORES</text>
<polygon fill="none" stroke="black" points="1,-149 1,-186 30,-186 30,-149 1,-149"/>
<text text-anchor="start" x="11.75" y="-161.7" font-family="Times New Roman,serif" font-size="14.00">#</text>
<polygon fill="none" stroke="black" points="30,-149 30,-186 107,-186 107,-149 30,-149"/>
<text text-anchor="start" x="55" y="-161.7" font-family="Times New Roman,serif" font-size="14.00">Tipo</text>
<polygon fill="none" stroke="black" points="107,-149 107,-186 417,-186 417,-149 107,-149"/>
<text text-anchor="start" x="228.25" y="-161.7" font-family="Times New Roman,serif" font-size="14.00">Descripcion</text>
<polygon fill="none" stroke="black" points="417,-149 417,-186 469,-186 469,-149 417,-149"/>
<text text-anchor="start" x="428" y="-161.7" font-family="Times New Roman,serif" font-size="14.00">Linea</text>
<polygon fill="none" stroke="black" points="469,-149 469,-186 541,-186 541,-149 469,-149"/>
<text text-anchor="start" x="479.88" y="-161.7" font-family="Times New Roman,serif" font-size="14.00">Columna</text>
<polygon fill="none" stroke="black" points="1,-112 1,-149 30,-149 30,-112 1,-112"/>
<text text-anchor="start" x="12.12" y="-124.7" font-family="Times New Roman,serif" font-size="14.00">1</text>
<polygon fill="none" stroke="black" points="30,-112 30,-149 107,-149 107,-112 30,-112"/>
<text text-anchor="start" x="40.75" y="-124.7" font-family="Times New Roman,serif" font-size="14.00">Sintáctico</text>
<polygon fill="none" stroke="black" points="107,-112 107,-149 417,-149 417,-112 107,-112"/>
<text text-anchor="start" x="164.12" y="-124.7" font-family="Times New Roman,serif" font-size="14.00">No se esperaba este componente: &#45;</text>
<polygon fill="none" stroke="black" points="417,-112 417,-149 469,-149 469,-112 417,-112"/>
<text text-anchor="start" x="439.62" y="-124.7" font-family="Times New Roman,serif" font-size="14.00">3</text>
<polygon fill="none" stroke="black" points="469,-112 469,-149 541,-149 541,-112 469,-112"/>
<text text-anchor="start" x="498.25" y="-124.7" font-family="Times New Roman,serif" font-size="14.00">16</text>
<polygon fill="none" stroke="black" points="1,-75 1,-112 30,-112 30,-75 1,-75"/>
<text text-anchor="start" x="12.12" y="-87.7" font-family="Times New Roman,serif" font-size="14.00">2</text>
<polygon fill="none" stroke="black" points="30,-75 30,-112 107,-112 107,-75 30,-75"/>
<text text-anchor="start" x="40.75" y="-87.7" font-family="Times New Roman,serif" font-size="14.00">Sintáctico</text>
<polygon fill="none" stroke="black" points="107,-75 107,-112 417,-112 417,-75 107,-75"/>
<text text-anchor="start" x="117.62" y="-87.7" font-family="Times New Roman,serif" font-size="14.00">Error en operación no se esperaba el componente: (</text>
<polygon fill="none" stroke="black" points="417,-75 417,-112 469,-112 469,-75 417,-75"/>
<text text-anchor="start" x="439.62" y="-87.7" font-family="Times New Roman,serif" font-size="14.00">5</text>
<polygon fill="none" stroke="black" points="469,-75 469,-112 541,-112 541,-75 469,-75"/>
<text text-anchor="start" x="498.25" y="-87.7" font-family="Times New Roman,serif" font-size="14.00">14</text>
<polygon fill="none" stroke="black" points="1,-38 1,-75 30,-75 30,-38 1,-38"/>
<text text-anchor="start" x="12.12" y="-50.7" font-family="Times New Roman,serif" font-size="14.00">3</text>
<polygon fill="none" stroke="black" points="30,-38 30,-75 107,-75 107,-38 30,-38"/>
<text text-anchor="start" x="40.75" y="-50.7" font-family="Times New Roman,serif" font-size="14.00">Sintáctico</text>
<polygon fill="none" stroke="black" points="107,-38 107,-75 417,-75 417,-38 107,-38"/>
<text text-anchor="start" x="117.62" y="-50.7" font-family="Times New Roman,serif" font-size="14.00">Error en operación no se esperaba el componente: (</text>
<polygon fill="none" stroke="black" points="417,-38 417,-75 469,-75 469,-38 417,-38"/>
<text text-anchor="start" x="439.62" y="-50.7" font-family="Times New Roman,serif" font-size="14.00">6</text>
<polygon fill="none" stroke="black" points="469,-38 469,-75 541,-75 541,-38 469,-38"/>
<text text-anchor="start" x="498.25" y="-50.7" font-family="Times New Roman,serif" font-size="14.00">13</text>
<polygon fill="none" stroke="black" points="1,-1 1,-38 30,-38 30,-1 1,-1"/>
<text text-anchor="start" x="12.12" y="-13.7" font-family="Times New Roman,serif" font-size="14.00">4</text>
<polygon fill="none" stroke="black" points="30,-1 30,-38 107,-38 107,-1 30,-1"/>
<text text-anchor="start" x="40.75" y="-13.7" font-family="Times New Roman,serif" font-size="14.00">Sintáctico</text>
<polygon fill="none" stroke="black" points="107,-1 107,-38 417,-38 417,-1 107,-1"/>
<text text-anchor="start" x="117.62" y="-13.7" font-family="Times New Roman,serif" font-size="14.00">Error en operación no se esperaba el componente: (</text>
<polygon fill="none" stroke="black" points="417,-1 417,-38 469,-38 469,-1 417,-1"/>
<text text-anchor="start" x="439.62" y="-13.7" font-family="Times New Roman,serif" font-size="14.00">7</text>
<polygon fill="none" stroke="black" points="469,-1 469,-38 541,-38 541,-1 469,-1"/>
<text text-anchor="start" x="498.25" y="-13.7" font-family="Times New Roman,serif" font-size="14.00">12</text>
<polygon fill="none" stroke="black" points="0,0 0,-224 542,-224 542,0 0,0"/>
</g>
</g>
</svg>
