<?xml version="1.0" encoding="UTF-8" standalone="no"?>
<!DOCTYPE svg PUBLIC "-//W3C//DTD SVG 1.1//EN"
 "http://www.w3.org/Graphics/SVG/1.1/DTD/svg11.dtd">
<!-- Generated by graphviz version 9.0.0 (20230911.1827)
 -->
<!-- Title: grafica Pages: 1 -->
<svg width="460pt" height="121pt"
 viewBox="0.00 0.00 460.00 121.00" xmlns="http://www.w3.org/2000/svg" xmlns:xlink="http://www.w3.org/1999/xlink">
<g id="graph0" class="graph" transform="scale(1 1) rotate(0) translate(4 117)">
<title>grafica</title>
<polygon fill="white" stroke="none" points="-4,4 -4,-117 456,-117 456,4 -4,4"/>
<!-- TABLA -->
<g id="node1" class="node">
<title>TABLA</title>
<polygon fill="none" stroke="black" points="1,-75 1,-112 451,-112 451,-75 1,-75"/>
<text text-anchor="start" x="158.12" y="-87.7" font-family="Times New Roman,serif" font-size="14.00">TABLA DE ERRORES</text>
<polygon fill="none" stroke="black" points="1,-38 1,-75 30,-75 30,-38 1,-38"/>
<text text-anchor="start" x="11.75" y="-50.7" font-family="Times New Roman,serif" font-size="14.00">#</text>
<polygon fill="none" stroke="black" points="30,-38 30,-75 107,-75 107,-38 30,-38"/>
<text text-anchor="start" x="55" y="-50.7" font-family="Times New Roman,serif" font-size="14.00">Tipo</text>
<polygon fill="none" stroke="black" points="107,-38 107,-75 327,-75 327,-38 107,-38"/>
<text text-anchor="start" x="183.25" y="-50.7" font-family="Times New Roman,serif" font-size="14.00">Descripcion</text>
<polygon fill="none" stroke="black" points="327,-38 327,-75 379,-75 379,-38 327,-38"/>
<text text-anchor="start" x="338" y="-50.7" font-family="Times New Roman,serif" font-size="14.00">Linea</text>
<polygon fill="none" stroke="black" points="379,-38 379,-75 451,-75 451,-38 379,-38"/>
<text text-anchor="start" x="389.88" y="-50.7" font-family="Times New Roman,serif" font-size="14.00">Columna</text>
<polygon fill="none" stroke="black" points="1,-1 1,-38 30,-38 30,-1 1,-1"/>
<text text-anchor="start" x="12.12" y="-13.7" font-family="Times New Roman,serif" font-size="14.00">1</text>
<polygon fill="none" stroke="black" points="30,-1 30,-38 107,-38 107,-1 30,-1"/>
<text text-anchor="start" x="40.75" y="-13.7" font-family="Times New Roman,serif" font-size="14.00">Sintáctico</text>
<polygon fill="none" stroke="black" points="107,-1 107,-38 327,-38 327,-1 107,-1"/>
<text text-anchor="start" x="118" y="-13.7" font-family="Times New Roman,serif" font-size="14.00">No se esperaba este componente: h</text>
<polygon fill="none" stroke="black" points="327,-1 327,-38 379,-38 379,-1 327,-1"/>
<text text-anchor="start" x="346.25" y="-13.7" font-family="Times New Roman,serif" font-size="14.00">10</text>
<polygon fill="none" stroke="black" points="379,-1 379,-38 451,-38 451,-1 379,-1"/>
<text text-anchor="start" x="408.25" y="-13.7" font-family="Times New Roman,serif" font-size="14.00">13</text>
<polygon fill="none" stroke="black" points="0,0 0,-113 452,-113 452,0 0,0"/>
</g>
</g>
</svg>
