<?xml version="1.0" encoding="UTF-8" standalone="no"?>
<!DOCTYPE svg PUBLIC "-//W3C//DTD SVG 1.1//EN"
 "http://www.w3.org/Graphics/SVG/1.1/DTD/svg11.dtd">
<!-- Generated by graphviz version 9.0.0 (20230911.1827)
 -->
<!-- Title: grafica Pages: 1 -->
<svg width="198pt" height="195pt"
 viewBox="0.00 0.00 198.00 195.00" xmlns="http://www.w3.org/2000/svg" xmlns:xlink="http://www.w3.org/1999/xlink">
<g id="graph0" class="graph" transform="scale(1 1) rotate(0) translate(4 191)">
<title>grafica</title>
<polygon fill="white" stroke="none" points="-4,4 -4,-191 194,-191 194,4 -4,4"/>
<!-- nodo18 -->
<g id="node1" class="node">
<title>nodo18</title>
<polygon fill="none" stroke="black" points="1,-149 1,-186 111,-186 111,-149 1,-149"/>
<text text-anchor="start" x="38.38" y="-161.7" font-family="Times New Roman,serif" font-size="14.00">HOJA</text>
<polygon fill="none" stroke="black" points="111,-149 111,-186 189,-186 189,-149 111,-149"/>
<text text-anchor="start" x="121.88" y="-161.7" font-family="Times New Roman,serif" font-size="14.00">Siguientes</text>
<polygon fill="none" stroke="black" points="1,-112 1,-149 83,-149 83,-112 1,-112"/>
<text text-anchor="start" x="11.62" y="-124.7" font-family="Times New Roman,serif" font-size="14.00">letraMayus</text>
<polygon fill="none" stroke="black" points="83,-112 83,-149 111,-149 111,-112 83,-112"/>
<text text-anchor="start" x="93.62" y="-124.7" font-family="Times New Roman,serif" font-size="14.00">1</text>
<polygon fill="none" stroke="black" points="111,-112 111,-149 189,-149 189,-112 111,-112"/>
<text text-anchor="start" x="141.38" y="-124.7" font-family="Times New Roman,serif" font-size="14.00">2,3</text>
<polygon fill="none" stroke="black" points="1,-75 1,-112 83,-112 83,-75 1,-75"/>
<text text-anchor="start" x="30.38" y="-87.7" font-family="Times New Roman,serif" font-size="14.00">letra</text>
<polygon fill="none" stroke="black" points="83,-75 83,-112 111,-112 111,-75 83,-75"/>
<text text-anchor="start" x="93.62" y="-87.7" font-family="Times New Roman,serif" font-size="14.00">2</text>
<polygon fill="none" stroke="black" points="111,-75 111,-112 189,-112 189,-75 111,-75"/>
<text text-anchor="start" x="141.38" y="-87.7" font-family="Times New Roman,serif" font-size="14.00">2,3</text>
<polygon fill="none" stroke="black" points="1,-38 1,-75 83,-75 83,-38 1,-38"/>
<text text-anchor="start" x="38.25" y="-50.7" font-family="Times New Roman,serif" font-size="14.00">_</text>
<polygon fill="none" stroke="black" points="83,-38 83,-75 111,-75 111,-38 83,-38"/>
<text text-anchor="start" x="93.62" y="-50.7" font-family="Times New Roman,serif" font-size="14.00">3</text>
<polygon fill="none" stroke="black" points="111,-38 111,-75 189,-75 189,-38 111,-38"/>
<text text-anchor="start" x="141.38" y="-50.7" font-family="Times New Roman,serif" font-size="14.00">1,4</text>
<polygon fill="none" stroke="black" points="1,-1 1,-38 83,-38 83,-1 1,-1"/>
<text text-anchor="start" x="38.25" y="-13.7" font-family="Times New Roman,serif" font-size="14.00">#</text>
<polygon fill="none" stroke="black" points="83,-1 83,-38 111,-38 111,-1 83,-1"/>
<text text-anchor="start" x="93.62" y="-13.7" font-family="Times New Roman,serif" font-size="14.00">4</text>
<polygon fill="none" stroke="black" points="111,-1 111,-38 189,-38 189,-1 111,-1"/>
<polygon fill="none" stroke="black" points="0,0 0,-187 190,-187 190,0 0,0"/>
</g>
</g>
</svg>
