<?xml version="1.0" encoding="UTF-8" standalone="no"?>
<!DOCTYPE svg PUBLIC "-//W3C//DTD SVG 1.1//EN"
 "http://www.w3.org/Graphics/SVG/1.1/DTD/svg11.dtd">
<!-- Generated by graphviz version 9.0.0 (20230911.1827)
 -->
<!-- Title: grafica Pages: 1 -->
<svg width="260pt" height="158pt"
 viewBox="0.00 0.00 260.00 158.00" xmlns="http://www.w3.org/2000/svg" xmlns:xlink="http://www.w3.org/1999/xlink">
<g id="graph0" class="graph" transform="scale(1 1) rotate(0) translate(4 154)">
<title>grafica</title>
<polygon fill="white" stroke="none" points="-4,4 -4,-154 256,-154 256,4 -4,4"/>
<!-- nodo18 -->
<g id="node1" class="node">
<title>nodo18</title>
<polygon fill="none" stroke="black" points="1,-112 1,-149 80,-149 80,-112 1,-112"/>
<text text-anchor="start" x="12.75" y="-124.7" font-family="Times New Roman,serif" font-size="14.00">ESTADO</text>
<polygon fill="none" stroke="black" points="80,-112 80,-149 162,-149 162,-112 80,-112"/>
<text text-anchor="start" x="90.62" y="-124.7" font-family="Times New Roman,serif" font-size="14.00">letraMayus</text>
<polygon fill="none" stroke="black" points="162,-112 162,-149 207,-149 207,-112 162,-112"/>
<text text-anchor="start" x="172.88" y="-124.7" font-family="Times New Roman,serif" font-size="14.00">letra</text>
<polygon fill="none" stroke="black" points="207,-112 207,-149 251,-149 251,-112 207,-112"/>
<text text-anchor="start" x="225.25" y="-124.7" font-family="Times New Roman,serif" font-size="14.00">_</text>
<polygon fill="none" stroke="black" points="1,-75 1,-112 80,-112 80,-75 1,-75"/>
<text text-anchor="start" x="17.25" y="-87.7" font-family="Times New Roman,serif" font-size="14.00"> S0 {1} </text>
<polygon fill="none" stroke="black" points="80,-75 80,-112 162,-112 162,-75 80,-75"/>
<text text-anchor="start" x="109.75" y="-87.7" font-family="Times New Roman,serif" font-size="14.00"> S1 </text>
<polygon fill="none" stroke="black" points="162,-75 162,-112 207,-112 207,-75 162,-75"/>
<text text-anchor="start" x="176.25" y="-87.7" font-family="Times New Roman,serif" font-size="14.00"> &#45;&#45; </text>
<polygon fill="none" stroke="black" points="207,-75 207,-112 251,-112 251,-75 207,-75"/>
<text text-anchor="start" x="220.75" y="-87.7" font-family="Times New Roman,serif" font-size="14.00"> &#45;&#45; </text>
<polygon fill="none" stroke="black" points="1,-38 1,-75 80,-75 80,-38 1,-38"/>
<text text-anchor="start" x="12" y="-50.7" font-family="Times New Roman,serif" font-size="14.00"> S1 {2,3} </text>
<polygon fill="none" stroke="black" points="80,-38 80,-75 162,-75 162,-38 80,-38"/>
<text text-anchor="start" x="112.75" y="-50.7" font-family="Times New Roman,serif" font-size="14.00"> &#45;&#45; </text>
<polygon fill="none" stroke="black" points="162,-38 162,-75 207,-75 207,-38 162,-38"/>
<text text-anchor="start" x="173.25" y="-50.7" font-family="Times New Roman,serif" font-size="14.00"> S1 </text>
<polygon fill="none" stroke="black" points="207,-38 207,-75 251,-75 251,-38 207,-38"/>
<text text-anchor="start" x="217.75" y="-50.7" font-family="Times New Roman,serif" font-size="14.00"> S2 </text>
<polygon fill="none" stroke="black" points="1,-1 1,-38 80,-38 80,-1 1,-1"/>
<text text-anchor="start" x="12" y="-13.7" font-family="Times New Roman,serif" font-size="14.00"> S2 {1,4} </text>
<polygon fill="none" stroke="black" points="80,-1 80,-38 162,-38 162,-1 80,-1"/>
<text text-anchor="start" x="109.75" y="-13.7" font-family="Times New Roman,serif" font-size="14.00"> S1 </text>
<polygon fill="none" stroke="black" points="162,-1 162,-38 207,-38 207,-1 162,-1"/>
<text text-anchor="start" x="176.25" y="-13.7" font-family="Times New Roman,serif" font-size="14.00"> &#45;&#45; </text>
<polygon fill="none" stroke="black" points="207,-1 207,-38 251,-38 251,-1 207,-1"/>
<text text-anchor="start" x="220.75" y="-13.7" font-family="Times New Roman,serif" font-size="14.00"> &#45;&#45; </text>
<polygon fill="none" stroke="black" points="0,0 0,-150 252,-150 252,0 0,0"/>
</g>
</g>
</svg>
