<?xml version="1.0" encoding="UTF-8" standalone="no"?>
<!DOCTYPE svg PUBLIC "-//W3C//DTD SVG 1.1//EN"
 "http://www.w3.org/Graphics/SVG/1.1/DTD/svg11.dtd">
<!-- Generated by graphviz version 9.0.0 (20230911.1827)
 -->
<!-- Title: grafica Pages: 1 -->
<svg width="333pt" height="87pt"
 viewBox="0.00 0.00 333.25 87.00" xmlns="http://www.w3.org/2000/svg" xmlns:xlink="http://www.w3.org/1999/xlink">
<g id="graph0" class="graph" transform="scale(1 1) rotate(0) translate(4 83)">
<title>grafica</title>
<polygon fill="white" stroke="none" points="-4,4 -4,-83 329.25,-83 329.25,4 -4,4"/>
<!-- S0 -->
<g id="node1" class="node">
<title>S0</title>
<ellipse fill="none" stroke="black" cx="20.63" cy="-24.63" rx="20.63" ry="20.63"/>
<text text-anchor="middle" x="20.63" y="-19.2" font-family="Times New Roman,serif" font-size="14.00">S0</text>
</g>
<!-- S1 -->
<g id="node2" class="node">
<title>S1</title>
<ellipse fill="none" stroke="black" cx="158.63" cy="-24.63" rx="20.63" ry="20.63"/>
<text text-anchor="middle" x="158.63" y="-19.2" font-family="Times New Roman,serif" font-size="14.00">S1</text>
</g>
<!-- S0&#45;&gt;S1 -->
<g id="edge1" class="edge">
<title>S0&#45;&gt;S1</title>
<path fill="none" stroke="black" d="M41.69,-24.63C64.02,-24.63 100.37,-24.63 126.41,-24.63"/>
<polygon fill="black" stroke="black" points="126.4,-28.13 136.4,-24.63 126.4,-21.13 126.4,-28.13"/>
<text text-anchor="middle" x="89.63" y="-27.08" font-family="Times New Roman,serif" font-size="14.00">letraMayus</text>
</g>
<!-- S1&#45;&gt;S1 -->
<g id="edge2" class="edge">
<title>S1&#45;&gt;S1</title>
<path fill="none" stroke="black" d="M146.71,-41.7C143.6,-52.68 147.57,-63.25 158.63,-63.25 165.7,-63.25 169.88,-58.91 171.15,-52.91"/>
<polygon fill="black" stroke="black" points="174.66,-53.01 170.62,-43.21 167.67,-53.39 174.66,-53.01"/>
<text text-anchor="middle" x="158.63" y="-65.7" font-family="Times New Roman,serif" font-size="14.00">letra</text>
</g>
<!-- S2 -->
<g id="node3" class="node">
<title>S2</title>
<ellipse fill="none" stroke="black" cx="300.63" cy="-24.63" rx="20.63" ry="20.63"/>
<ellipse fill="none" stroke="black" cx="300.63" cy="-24.63" rx="24.63" ry="24.63"/>
<text text-anchor="middle" x="300.63" y="-19.2" font-family="Times New Roman,serif" font-size="14.00">S2</text>
</g>
<!-- S1&#45;&gt;S2 -->
<g id="edge3" class="edge">
<title>S1&#45;&gt;S2</title>
<path fill="none" stroke="black" d="M179.68,-24.63C201.81,-24.63 237.84,-24.63 264.64,-24.63"/>
<polygon fill="black" stroke="black" points="264.34,-28.13 274.34,-24.63 264.34,-21.13 264.34,-28.13"/>
<text text-anchor="middle" x="227.63" y="-27.08" font-family="Times New Roman,serif" font-size="14.00">_</text>
</g>
<!-- S2&#45;&gt;S1 -->
<g id="edge4" class="edge">
<title>S2&#45;&gt;S1</title>
<path fill="none" stroke="black" d="M278.68,-12.48C272.25,-9.37 265.02,-6.46 258,-4.88 231.66,1.06 223.47,1.59 197.25,-4.88 193.67,-5.76 190.05,-7.05 186.55,-8.56"/>
<polygon fill="black" stroke="black" points="185.29,-5.27 177.89,-12.86 188.4,-11.54 185.29,-5.27"/>
<text text-anchor="middle" x="227.63" y="-7.08" font-family="Times New Roman,serif" font-size="14.00">letraMayus</text>
</g>
</g>
</svg>
